<svg aria-hidden="true" style="position: absolute; width: 0; height: 0; overflow: hidden;" version="1.1" xmlns="http://www.w3.org/2000/svg" xmlns:xlink="http://www.w3.org/1999/xlink">
<defs>
<symbol id="icon-spinner" viewBox="0 0 16 16">
<path d="M15 9h-2c-0.553 0-1-0.447-1-1s0.447-1 1-1h2c0.553 0 1 0.447 1 1s-0.447 1-1 1zM12.242 5.172c-0.391 0.391-1.023 0.391-1.414 0s-0.391-1.023 0-1.414l1.414-1.414c0.391-0.391 1.023-0.391 1.414 0s0.391 1.023 0 1.414l-1.414 1.414zM8 16c-0.553 0-1-0.447-1-1v-2c0-0.553 0.447-1 1-1s1 0.447 1 1v2c0 0.553-0.447 1-1 1zM8 4c-0.553 0-1-0.447-1-1v-2c0-0.553 0.447-1 1-1s1 0.447 1 1v2c0 0.553-0.447 1-1 1zM3.758 13.656c-0.391 0.391-1.023 0.391-1.414 0s-0.391-1.023 0-1.414l1.414-1.414c0.391-0.391 1.023-0.391 1.414 0s0.391 1.023 0 1.414l-1.414 1.414zM3.758 5.172l-1.414-1.414c-0.391-0.391-0.391-1.023 0-1.414s1.023-0.391 1.414 0l1.414 1.414c0.391 0.391 0.391 1.023 0 1.414s-1.023 0.391-1.414 0zM4 8c0 0.553-0.447 1-1 1h-2c-0.553 0-1-0.447-1-1s0.447-1 1-1h2c0.553 0 1 0.447 1 1zM12.242 10.828l1.414 1.414c0.391 0.391 0.391 1.024 0 1.414s-1.023 0.391-1.414 0l-1.414-1.414c-0.391-0.391-0.391-1.023 0-1.414s1.023-0.391 1.414 0z"></path>
</symbol>
<symbol id="icon-qr_code_scanner" viewBox="0 0 24 24">
<path d="M9.516 6.516v3h-3v-3h3zM11.016 5.016h-6v6h6v-6zM9.516 14.484v3h-3v-3h3zM11.016 12.984h-6v6h6v-6zM17.484 6.516v3h-3v-3h3zM18.984 5.016h-6v6h6v-6zM12.984 12.984h1.5v1.5h-1.5v-1.5zM14.484 14.484h1.5v1.5h-1.5v-1.5zM15.984 12.984h1.5v1.5h-1.5v-1.5zM12.984 15.984h1.5v1.5h-1.5v-1.5zM14.484 17.484h1.5v1.5h-1.5v-1.5zM15.984 15.984h1.5v1.5h-1.5v-1.5zM17.484 14.484h1.5v1.5h-1.5v-1.5zM17.484 17.484h1.5v1.5h-1.5v-1.5zM21.984 6.984h-1.969v-3h-3v-1.969h4.969v4.969zM21.984 21.984v-4.969h-1.969v3h-3v1.969h4.969zM2.016 21.984h4.969v-1.969h-3v-3h-1.969v4.969zM2.016 2.016v4.969h1.969v-3h3v-1.969h-4.969z"></path>
</symbol>
<symbol id="icon-link" viewBox="0 0 20 20">
<path d="M7.859 14.691l-0.81 0.805c-0.701 0.695-1.843 0.695-2.545 0-0.336-0.334-0.521-0.779-0.521-1.252s0.186-0.916 0.521-1.252l2.98-2.955c0.617-0.613 1.779-1.515 2.626-0.675 0.389 0.386 1.016 0.384 1.403-0.005 0.385-0.389 0.383-1.017-0.006-1.402-1.438-1.428-3.566-1.164-5.419 0.675l-2.98 2.956c-0.715 0.709-1.108 1.654-1.108 2.658 0 1.006 0.394 1.949 1.108 2.658 0.736 0.73 1.702 1.096 2.669 1.096s1.934-0.365 2.669-1.096l0.811-0.805c0.389-0.385 0.391-1.012 0.005-1.4s-1.014-0.39-1.403-0.006zM16.891 3.207c-1.547-1.534-3.709-1.617-5.139-0.197l-1.009 1.002c-0.389 0.386-0.392 1.013-0.006 1.401 0.386 0.389 1.013 0.391 1.402 0.005l1.010-1.001c0.74-0.736 1.711-0.431 2.346 0.197 0.336 0.335 0.522 0.779 0.522 1.252s-0.186 0.917-0.522 1.251l-3.18 3.154c-1.454 1.441-2.136 0.766-2.427 0.477-0.389-0.386-1.016-0.383-1.401 0.005s-0.384 1.017 0.005 1.401c0.668 0.662 1.43 0.99 2.228 0.99 0.977 0 2.010-0.492 2.993-1.467l3.18-3.153c0.712-0.71 1.107-1.654 1.107-2.658s-0.395-1.949-1.109-2.659z"></path>
</symbol>
</defs>
</svg>
